<?xml version="1.0" encoding="UTF-8"?>
<svg id="Layer_2" data-name="Layer 2" xmlns="http://www.w3.org/2000/svg" viewBox="0 0 531.73 124.85">
  <defs>
    <style>
      .cls-1 {
        stroke-linejoin: round;
      }

      .cls-1, .cls-2 {
        stroke: #1d4ed8;
      }

      .cls-1, .cls-2, .cls-3 {
        stroke-linecap: round;
        stroke-width: 28px;
      }

      .cls-1, .cls-3 {
        fill: none;
      }

      .cls-4 {
        fill: #101828;
      }

      .cls-2 {
        fill: #1d4ed8;
      }

      .cls-2, .cls-3 {
        stroke-miterlimit: 10;
      }

      .cls-3 {
        stroke: #5eead4;
      }
    </style>
  </defs>
  <g id="Layer_1-2" data-name="Layer 1">
    <g>
      <path class="cls-4" d="M138.99,112.23V10.96h32.82c12.44,0,20.54.51,24.32,1.52,5.8,1.52,10.66,4.83,14.58,9.91,3.91,5.09,5.87,11.66,5.87,19.72,0,6.22-1.13,11.45-3.39,15.68-2.26,4.24-5.12,7.56-8.6,9.98-3.48,2.42-7.01,4.02-10.6,4.8-4.88.97-11.95,1.45-21.21,1.45h-13.33v38.2h-20.45ZM159.44,28.09v28.74h11.19c8.06,0,13.45-.53,16.17-1.59,2.72-1.06,4.85-2.72,6.39-4.97,1.54-2.26,2.31-4.88,2.31-7.88,0-3.68-1.08-6.72-3.25-9.12-2.17-2.39-4.9-3.89-8.22-4.49-2.44-.46-7.35-.69-14.71-.69h-9.88Z"/>
      <path class="cls-4" d="M239.73,61.25l-17.62-3.18c1.98-7.09,5.39-12.34,10.22-15.75,4.84-3.41,12.02-5.11,21.55-5.11,8.66,0,15.11,1.03,19.34,3.07,4.24,2.05,7.22,4.65,8.95,7.81,1.73,3.16,2.59,8.95,2.59,17.38l-.21,22.66c0,6.45.31,11.2.93,14.27.62,3.06,1.78,6.34,3.49,9.84h-19.21c-.51-1.29-1.13-3.2-1.87-5.73-.32-1.15-.55-1.91-.69-2.28-3.32,3.22-6.86,5.64-10.64,7.25-3.78,1.61-7.81,2.42-12.09,2.42-7.55,0-13.51-2.05-17.86-6.15-4.35-4.1-6.53-9.28-6.53-15.54,0-4.15.99-7.84,2.97-11.09,1.98-3.25,4.75-5.73,8.32-7.46,3.57-1.73,8.72-3.24,15.44-4.53,9.07-1.7,15.36-3.29,18.86-4.77v-1.93c0-3.73-.92-6.39-2.76-7.98-1.84-1.59-5.32-2.38-10.43-2.38-3.45,0-6.15.68-8.08,2.04-1.93,1.36-3.5,3.74-4.7,7.15ZM265.7,77c-2.49.83-6.43,1.82-11.81,2.97-5.39,1.15-8.91,2.28-10.57,3.38-2.53,1.8-3.8,4.08-3.8,6.84s1.01,5.07,3.04,7.05c2.03,1.98,4.6,2.97,7.74,2.97,3.5,0,6.84-1.15,10.02-3.45,2.35-1.75,3.89-3.89,4.63-6.42.51-1.66.76-4.81.76-9.46v-3.87Z"/>
      <path class="cls-4" d="M317.49,112.23h-19.41V38.87h18.03v10.43c3.08-4.93,5.86-8.17,8.32-9.74,2.46-1.57,5.26-2.35,8.39-2.35,4.42,0,8.68,1.22,12.78,3.66l-6.01,16.93c-3.27-2.12-6.31-3.18-9.12-3.18s-5.02.75-6.91,2.25c-1.89,1.5-3.37,4.2-4.46,8.12-1.08,3.92-1.62,12.11-1.62,24.59v22.66Z"/>
      <path class="cls-4" d="M353.97,28.92V10.96h19.41v17.96h-19.41ZM353.97,112.23V38.87h19.41v73.37h-19.41Z"/>
      <path class="cls-4" d="M413.45,112.23l-29.57-73.37h20.38l13.82,37.44,4.01,12.5c1.06-3.18,1.73-5.27,2-6.29.64-2.07,1.33-4.15,2.07-6.22l13.96-37.44h19.97l-29.15,73.37h-17.48Z"/>
      <path class="cls-4" d="M482.47,61.25l-17.62-3.18c1.98-7.09,5.39-12.34,10.22-15.75,4.84-3.41,12.02-5.11,21.55-5.11,8.66,0,15.11,1.03,19.34,3.07,4.24,2.05,7.22,4.65,8.95,7.81,1.73,3.16,2.59,8.95,2.59,17.38l-.21,22.66c0,6.45.31,11.2.93,14.27.62,3.06,1.78,6.34,3.49,9.84h-19.21c-.51-1.29-1.13-3.2-1.87-5.73-.32-1.15-.55-1.91-.69-2.28-3.32,3.22-6.86,5.64-10.64,7.25s-7.81,2.42-12.09,2.42c-7.55,0-13.51-2.05-17.86-6.15-4.35-4.1-6.53-9.28-6.53-15.54,0-4.15.99-7.84,2.97-11.09,1.98-3.25,4.75-5.73,8.33-7.46,3.57-1.73,8.71-3.24,15.44-4.53,9.07-1.7,15.36-3.29,18.86-4.77v-1.93c0-3.73-.92-6.39-2.76-7.98-1.84-1.59-5.32-2.38-10.43-2.38-3.45,0-6.15.68-8.08,2.04-1.93,1.36-3.5,3.74-4.7,7.15ZM508.44,77c-2.49.83-6.42,1.82-11.81,2.97s-8.91,2.28-10.57,3.38c-2.53,1.8-3.8,4.08-3.8,6.84s1.01,5.07,3.04,7.05c2.03,1.98,4.6,2.97,7.74,2.97,3.5,0,6.84-1.15,10.02-3.45,2.35-1.75,3.89-3.89,4.63-6.42.51-1.66.76-4.81.76-9.46v-3.87Z"/>
    </g>
    <g>
      <g>
        <path class="cls-1" d="M49.37,14c26.78.24,49.18,21.58,49.18,48.36s-21.71,48.49-48.49,48.49"/>
        <line class="cls-2" x1="48.02" y1="14" x2="14" y2="14"/>
      </g>
      <line class="cls-3" x1="41.35" y1="62.42" x2="14" y2="62.42"/>
    </g>
  </g>
</svg>